<?xml version="1.0" encoding="UTF-8"?>
<svg version="1.1" xmlns="http://www.w3.org/2000/svg" width="518" height="518">
<path d="M0 0 C170.94 0 341.88 0 518 0 C518 170.94 518 341.88 518 518 C347.06 518 176.12 518 0 518 C0 347.06 0 176.12 0 0 Z " fill="#FBFBFB" transform="translate(0,0)"/>
<path d="M0 0 C3 1 3 1 4.01147461 2.75561523 C4.30546143 3.51559814 4.59944824 4.27558105 4.90234375 5.05859375 C5.23363281 5.909375 5.56492187 6.76015625 5.90625 7.63671875 C15.21967085 32.93112309 19.32270807 59.42446721 12 86 C11.66935547 87.20414551 11.66935547 87.20414551 11.33203125 88.43261719 C2.22840358 120.37960689 -15.85755655 145.82826205 -42.7734375 164.97265625 C-59.01808311 176.57257181 -72.54858906 189.07745287 -82.34375 206.61328125 C-83.16359375 207.79470703 -83.16359375 207.79470703 -84 209 C-84.99 209 -85.98 209 -87 209 C-88.51121395 206.92132217 -89.8218241 204.89156337 -91.125 202.6875 C-101.82388948 185.39543899 -115.49933987 172.57206688 -132 161 C-161.82484127 139.97532794 -178.94162338 109.66439422 -185.55859375 73.98828125 C-188.69649281 50.75000648 -186.45005512 21.17508269 -173 1 C-172.34 1 -171.68 1 -171 1 C-169.97616089 2.14920716 -169.00615653 3.34659048 -168.0625 4.5625 C-160.62303806 13.27672918 -149.83394625 17.67705875 -139.625 22.375 C-115.93453647 33.51852236 -96.79555769 48.94503084 -87 74 C-87 74.99 -87 75.98 -87 77 C-86.34 77 -85.68 77 -85 77 C-84.5359375 75.205625 -84.5359375 75.205625 -84.0625 73.375 C-80.25977364 62.03823361 -72.18282886 52.4655084 -64 44 C-63.15308594 43.00806641 -63.15308594 43.00806641 -62.2890625 41.99609375 C-52.81541297 31.38646362 -38.82821849 25.27625428 -26.125 19.5 C-16.7794297 15.23372758 -9.93128772 10.59874506 -3 3 C-2.00433833 1.99568041 -1.00651445 0.99344283 0 0 Z " fill="#022E5C" transform="translate(350,144)"/>
<path d="M0 0 C0.90814453 0.34015137 1.81628906 0.68030273 2.75195312 1.03076172 C9.38955536 3.57517591 15.70768123 6.51003062 21.87524414 10.04956055 C23.87769468 11.19231094 23.87769468 11.19231094 26.9375 12.3125 C29.42372932 11.56380926 29.42372932 11.56380926 31.9375 10.3125 C33.06273071 9.78499146 33.06273071 9.78499146 34.21069336 9.24682617 C34.97518799 8.87017822 35.73968262 8.49353027 36.52734375 8.10546875 C76.60220541 -11.45452236 121.0140624 -20.1671067 165.5 -20 C166.87309326 -19.9992598 166.87309326 -19.9992598 168.27392578 -19.99850464 C185.43601033 -19.97049717 202.39338854 -18.84746884 219.453125 -17.04736328 C223.55885961 -16.62332651 227.66865847 -16.27527085 231.78320312 -15.94897461 C233.9375 -15.6875 233.9375 -15.6875 236.9375 -14.6875 C236.38528546 -11.08441744 235.53381461 -8.66135792 233.453125 -5.67578125 C232.67859985 -4.55308838 232.67859985 -4.55308838 231.88842773 -3.40771484 C231.32712158 -2.61316895 230.76581543 -1.81862305 230.1875 -1 C229.60621338 -0.1642041 229.02492676 0.6715918 228.42602539 1.53271484 C223.42441509 8.69596386 218.30975139 15.77789744 213.171875 22.84375 C208.0161317 29.94470048 202.98186149 37.13223771 197.9375 44.3125 C197.08929688 44.17972656 196.24109375 44.04695313 195.3671875 43.91015625 C194.19414062 43.73355469 193.02109375 43.55695313 191.8125 43.375 C190.67554688 43.20097656 189.53859375 43.02695312 188.3671875 42.84765625 C159.42037757 39.04912731 129.64659749 40.54137182 100.9375 45.3125 C99.84131348 45.49441895 98.74512695 45.67633789 97.61572266 45.86376953 C77.43076067 49.35534048 53.58340937 54.26677129 37.29296875 67.453125 C33.4894458 70.45557429 30.01141328 70.71667953 25.328125 70.65625 C21.15656906 70.05641843 18.29554679 67.72649213 14.9375 65.3125 C-12.41091412 47.16132835 -50.81293801 42.1826889 -83.0390625 42.14453125 C-84.55335342 42.13953865 -84.55335342 42.13953865 -86.09823608 42.13444519 C-88.22092234 42.12941804 -90.34361639 42.12703555 -92.46630859 42.12719727 C-95.65866617 42.12501967 -98.85067245 42.10684258 -102.04296875 42.08789062 C-112.69568718 42.05963325 -123.06176443 42.37487153 -133.61474609 43.8815918 C-136.83198187 44.28368931 -139.82698841 44.51993888 -143.0625 44.3125 C-144.94140625 42.57421875 -144.94140625 42.57421875 -146.625 40 C-147.30175781 38.99710937 -147.97851562 37.99421875 -148.67578125 36.9609375 C-149.05041504 36.38698242 -149.42504883 35.81302734 -149.81103516 35.22167969 C-152.25884163 31.48741386 -154.79424356 27.81194389 -157.3125 24.125 C-157.86502441 23.31135986 -158.41754883 22.49771973 -158.98681641 21.65942383 C-162.69127549 16.22910876 -166.52826911 10.92498169 -170.5 5.6875 C-177.45737826 -3.51717801 -177.45737826 -3.51717801 -179.875 -6.9375 C-180.33519531 -7.58203125 -180.79539063 -8.2265625 -181.26953125 -8.890625 C-182.29076426 -11.20474907 -181.75289682 -12.31604367 -181.0625 -14.6875 C-176.03146012 -15.24154197 -171.00012126 -15.79276193 -165.96850586 -16.34155273 C-164.26269517 -16.52798276 -162.55696341 -16.71513676 -160.85131836 -16.90307617 C-106.07148502 -22.93609746 -51.93573375 -19.53892896 0 0 Z " fill="#042D5C" transform="translate(237.0625,396.6875)"/>
<path d="M0 0 C0.66 0 1.32 0 2 0 C2.97043299 4.92102806 3.18984617 9.64690104 3.23828125 14.640625 C3.24825638 15.47253357 3.25823151 16.30444214 3.26850891 17.16156006 C3.72929648 65.69108725 3.72929648 65.69108725 -3.10546875 76.25390625 C-5.60226083 78.59985874 -8.05897978 80.25532699 -11 82 C-12.79236616 83.41056035 -14.5628245 84.84932107 -16.3125 86.3125 C-17.22644531 87.05113281 -18.14039063 87.78976563 -19.08203125 88.55078125 C-22.32109607 91.26951438 -25.41345655 94.11113711 -28.5 97 C-38.60547733 106.42734662 -49.49304754 114.71676304 -60.59228516 122.92773438 C-61.97895592 123.93427519 -61.97895592 123.93427519 -63 125 C-33.42128485 107.56999859 -33.42128485 107.56999859 -6 87 C-4.91089067 90.26732798 -5.03921259 90.89627255 -6.0390625 94.02734375 C-6.411521 95.20768188 -6.411521 95.20768188 -6.79150391 96.41186523 C-7.06655762 97.24532471 -7.34161133 98.07878418 -7.625 98.9375 C-7.90134277 99.78836182 -8.17768555 100.63922363 -8.46240234 101.51586914 C-15.49314925 122.83627597 -15.49314925 122.83627597 -27 129 C-40.62786872 136.48315295 -53.9722441 144.51403056 -67 153 C-65.83726562 152.443125 -64.67453125 151.88625 -63.4765625 151.3125 C-55.08623561 147.30764446 -46.67713313 143.35305452 -38.1875 139.5625 C-37.45418457 139.23314453 -36.72086914 138.90378906 -35.96533203 138.56445312 C-32.03160567 136.8201764 -28.11410889 135.28525537 -24 134 C-29.74880612 153.19172144 -45.18978693 170.6481726 -59.37109375 184.37109375 C-61.14686181 186.08042348 -61.14686181 186.08042348 -63 188.5625 C-71.52175263 198.94838602 -83.88950726 206.88863851 -95.25 213.875 C-95.98202637 214.32713867 -96.71405273 214.77927734 -97.46826172 215.24511719 C-102.39208962 218.21335869 -107.50469756 221.23231066 -113 223 C-113.66 222.67 -114.32 222.34 -115 222 C-114.14728516 220.74509766 -114.14728516 220.74509766 -113.27734375 219.46484375 C-94.82316634 191.83777198 -86.4876025 158.78233945 -92.125 125.6875 C-93.58168934 118.89904482 -95.72101226 112.36583186 -98.10595703 105.84838867 C-100.10127731 100.30383192 -100.10127731 100.30383192 -99 97 C-96.85648191 95.58202665 -94.73884086 94.31192853 -92.5 93.0625 C-64.72450757 76.97131225 -38.51726589 54.56647696 -19 29 C-18.26652344 28.071875 -17.53304687 27.14375 -16.77734375 26.1875 C-10.44514738 18.01972698 -4.63135043 9.26270085 0 0 Z " fill="#052D5C" transform="translate(464,53)"/>
<path d="M0 0 C3.37270824 2.96389512 5.7101433 5.98415477 8.0625 9.8125 C15.11711806 21.16722148 23.30199909 31.61020492 32.47265625 41.3203125 C34.77964047 43.76635759 36.99022426 46.26828598 39.1875 48.8125 C42.19959492 52.21482584 45.36619075 55.21970203 48.83984375 58.14453125 C50.36708355 59.45635567 51.85634044 60.81301799 53.31640625 62.19921875 C67.8249519 75.95464905 84.69971392 86.15135784 102 96 C101.38686037 100.50316993 100.19799772 104.43087283 98.625 108.6875 C87.8975204 139.63917115 92.59709207 173.21211137 106.26171875 202.4609375 C108.30901405 206.62913872 110.44851299 210.72559553 112.73828125 214.765625 C113.89558867 216.8150982 114.96707823 218.88566248 116 221 C96.78274139 218.49989063 78.29851312 199.92846754 65 187 C64.38737305 186.4131543 63.77474609 185.82630859 63.14355469 185.22167969 C50.61611738 173.20065723 40.58470812 160.75826036 31.96337891 145.68017578 C31.08733426 144.15231484 30.19122533 142.63600245 29.29296875 141.12109375 C28.82503906 140.31800781 28.35710937 139.51492187 27.875 138.6875 C27.48054688 138.01074219 27.08609375 137.33398438 26.6796875 136.63671875 C26.45539063 136.09660156 26.23109375 135.55648437 26 135 C26.33 134.34 26.66 133.68 27 133 C27.58676514 133.28609131 28.17353027 133.57218262 28.77807617 133.86694336 C42.69711427 140.63526312 56.71436733 147.04337547 71 153 C70.09121094 152.45472656 69.18242187 151.90945312 68.24609375 151.34765625 C67.64724365 150.98833008 67.04839355 150.62900391 66.43139648 150.25878906 C65.0781008 149.44684479 63.72474593 148.63499916 62.37133789 147.82324219 C59.05871767 145.8362038 55.74667492 143.84824047 52.4375 141.85546875 C51.86233643 141.50983887 51.28717285 141.16420898 50.69458008 140.80810547 C49.51046443 140.09503652 48.32803916 139.37915392 47.1472168 138.66064453 C43.2341128 136.29241353 39.27418751 134.03456817 35.26953125 131.82421875 C34.2751001 131.26444336 33.28066895 130.70466797 32.25610352 130.12792969 C30.28946513 129.02202502 28.3123035 127.93457859 26.32397461 126.86816406 C22.03808289 124.43389036 19.48835373 122.94408038 17.1875 118.49609375 C16.78408728 116.99941822 16.38951595 115.50035222 16 114 C15.17812017 111.71529159 14.33770898 109.43721011 13.484375 107.1640625 C12.8042609 105.29080024 12.12417486 103.41752681 11.44628906 101.54345703 C10.97781664 100.25269394 10.50640799 98.96299315 10.03222656 97.67431641 C9.34246034 95.79851182 8.66323876 93.91884022 7.984375 92.0390625 C7.57928711 90.92740723 7.17419922 89.81575195 6.75683594 88.67041016 C6 86 6 86 7 84 C7.41540039 84.43932861 7.83080078 84.87865723 8.25878906 85.33129883 C12.45293365 89.66008036 16.79146013 93.27427262 21.75 96.6875 C22.84429321 97.45006104 22.84429321 97.45006104 23.96069336 98.22802734 C31.70434265 103.57340478 39.65740524 108.58194339 47.65136719 113.54199219 C50.02365857 115.014687 52.39137509 116.49448202 54.7578125 117.9765625 C58.50267118 120.32179489 62.25041697 122.66232892 66 125 C65.31164062 124.45730469 64.62328125 123.91460937 63.9140625 123.35546875 C60.67610941 120.73819568 57.52480258 118.03446564 54.375 115.3125 C50.06972352 111.60259207 45.7353107 107.94506734 41.3125 104.375 C36.62549065 100.57323839 32.18509322 96.55124184 27.74609375 92.46484375 C25.08124834 90.07292703 22.35168175 87.80745116 19.5625 85.5625 C18.66660156 84.80582031 17.77070312 84.04914063 16.84765625 83.26953125 C14.02086407 80.92033586 14.02086407 80.92033586 10.74609375 79.01171875 C4.83530965 74.89337459 1.99396463 71.40265656 0.578125 64.21875 C-1.92900483 46.30159595 -1.37179474 27.76199147 -1.203125 9.70703125 C-1.19869385 8.95627823 -1.1942627 8.20552521 -1.18969727 7.43202209 C-1.11852975 2.2370595 -1.11852975 2.2370595 0 0 Z " fill="#052B5A" transform="translate(63,55)"/>
<path d="M0 0 C0.80392181 0.00068481 1.60784363 0.00136963 2.43612671 0.0020752 C6.17916635 0.01265568 9.91859951 0.05142947 13.66040039 0.15014648 C16.07815151 0.21201598 18.49739092 0.23917745 20.91577148 0.21118164 C27.57875258 0.34431871 27.57875258 0.34431871 30.24536133 2.79931641 C31.66649654 4.86609751 32.71741086 6.90316799 33.75 9.1875 C34.31944336 10.3002832 34.31944336 10.3002832 34.90039062 11.43554688 C37.5625 16.7453238 37.5625 16.7453238 37.5625 19.25 C33.89561187 18.94006494 30.22903494 18.62658349 26.5625 18.3125 C25.53253906 18.22548828 24.50257813 18.13847656 23.44140625 18.04882812 C22.42949219 17.96181641 21.41757812 17.87480469 20.375 17.78515625 C19.45332031 17.706604 18.53164063 17.62805176 17.58203125 17.54711914 C15.34351243 17.32685092 13.11091515 17.04451616 10.88378906 16.72924805 C5.79825426 16.08500479 0.72969944 16.06968956 -4.390625 16.046875 C-5.43605972 16.03990601 -6.48149445 16.03293701 -7.55860901 16.02575684 C-10.93494697 16.00837615 -14.31111909 16.00203175 -17.6875 16 C-18.83721283 15.99899292 -19.98692566 15.99798584 -21.17147827 15.99694824 C-38.46250328 16.00721419 -55.33757629 16.4900833 -72.4375 19.25 C-73.41799316 19.4051709 -74.39848633 19.5603418 -75.40869141 19.72021484 C-80.96459586 20.62094898 -86.48908285 21.63367365 -92.00439453 22.75585938 C-94.25912457 23.21377364 -96.51729227 23.64744085 -98.77734375 24.078125 C-118.98508875 28.08646604 -138.99913863 34.18382314 -157.20581055 43.88305664 C-163.6456799 47.24415631 -163.6456799 47.24415631 -167.61328125 47.2734375 C-171.10830725 46.00691355 -174.38519476 44.44083507 -177.6875 42.75 C-195.2284016 34.18652438 -213.96959397 28.52251225 -233.07568359 24.72021484 C-235.14430572 24.30837215 -237.20746915 23.86930327 -239.26953125 23.42578125 C-242.50546887 22.7631678 -245.74339714 22.18075561 -249.00390625 21.65332031 C-250.74631652 21.36455007 -252.48566372 21.05705261 -254.22265625 20.73730469 C-273.38472612 17.27916882 -292.31535001 16.86800973 -311.75 16.875 C-313.59946732 16.87241684 -313.59946732 16.87241684 -315.48629761 16.86978149 C-329.60341205 16.87201089 -343.45320879 17.26197913 -357.4375 19.25 C-358.88186053 19.44914279 -360.32627807 19.6478725 -361.77075195 19.84619141 C-364.99604589 20.29600061 -368.21758574 20.76338916 -371.4375 21.25 C-370.04785502 16.73878796 -368.28744548 12.63293192 -366.125 8.4375 C-365.55136719 7.29667969 -364.97773438 6.15585937 -364.38671875 4.98046875 C-362.4375 2.25 -362.4375 2.25 -360.11378479 1.59040833 C-357.60478443 1.27127764 -355.19555211 1.10394548 -352.66772461 1.07299805 C-351.74189072 1.06034912 -350.81605682 1.0477002 -349.86216736 1.03466797 C-348.86480057 1.02709473 -347.86743378 1.01952148 -346.83984375 1.01171875 C-345.79006851 1.00197021 -344.74029327 0.99222168 -343.65870667 0.98217773 C-318.62797772 0.79826433 -294.18994893 1.43627118 -269.4375 5.25 C-268.1390918 5.44787109 -266.84068359 5.64574219 -265.50292969 5.84960938 C-233.74745828 10.82171004 -199.2277237 19.50718735 -171.64453125 36.5703125 C-168.73620472 38.42094274 -168.73620472 38.42094274 -166.375 38.2109375 C-163.66480284 36.86676714 -161.05739549 35.38885471 -158.4375 33.875 C-111.16619655 7.77130777 -53.29232703 -0.06499461 0 0 Z " fill="#0C305C" transform="translate(431.4375,355.75)"/>
<path d="M0 0 C6.8529962 0.58799967 13.19301925 1.90450971 19.8125 3.75 C21.26934204 4.15206665 21.26934204 4.15206665 22.75561523 4.56225586 C28.80041496 6.27119589 34.59344043 8.21865409 40.32421875 10.8125 C43.13293669 12.05899672 45.97442893 13.04972037 48.875 14.0625 C89.46372235 29.47345383 126.95798913 61.6682844 149 99 C145.45032463 99 145.2623803 98.60457603 142.8125 96.25 C125.88212928 80.9039392 106.13490165 69.5459868 86 59 C85.22060059 58.58717773 84.44120117 58.17435547 83.63818359 57.74902344 C73.36408986 52.36681731 62.72332362 48.32077239 51.75 44.625 C50.51894531 44.20782715 49.28789062 43.7906543 48.01953125 43.36083984 C39.44066265 40.55576955 30.87414332 38.61247274 22 37 C20.05965916 36.62361386 18.1195333 36.24611673 16.1796875 35.8671875 C7.24272622 34.18008717 -1.53736142 32.59760576 -10.63671875 32.17578125 C-13 32 -13 32 -16 31 C-14.62089591 27.40018054 -13.03400682 24.00228658 -11.25 20.5859375 C-10.7240625 19.57789063 -10.198125 18.56984375 -9.65625 17.53125 C-9.1096875 16.4896875 -8.563125 15.448125 -8 14.375 C-7.18015625 12.80105469 -7.18015625 12.80105469 -6.34375 11.1953125 C-2.26450893 3.39676339 -2.26450893 3.39676339 0 0 Z " fill="#BFC2C6" transform="translate(114,282)"/>
<path d="M0 0 C1.62158203 1.94604492 1.62158203 1.94604492 3.0078125 4.48046875 C3.51957031 5.39763672 4.03132812 6.31480469 4.55859375 7.25976562 C5.07550781 8.22591797 5.59242188 9.19207031 6.125 10.1875 C6.64964844 11.13431641 7.17429687 12.08113281 7.71484375 13.05664062 C9.16774439 15.69209204 10.58997646 18.34141821 12 21 C12.61617187 22.15113281 13.23234375 23.30226563 13.8671875 24.48828125 C15 27 15 27 15 30 C13.78570312 30.15855469 12.57140625 30.31710937 11.3203125 30.48046875 C-8.01631628 33.0801264 -27.56051119 35.87644024 -46.04003906 42.32324219 C-48.22439898 43.07748306 -50.41914192 43.7944674 -52.6171875 44.5078125 C-87.07554829 55.72426683 -117.2518711 74.1250581 -144.9609375 97.35546875 C-147 99 -147 99 -149 100 C-143.79321542 86.05846934 -132.09718366 74.59867027 -122 64 C-121.37947754 63.34547852 -120.75895508 62.69095703 -120.11962891 62.01660156 C-97.54824116 38.36306162 -72.25109832 23.02481158 -42 11 C-40.64568565 10.44046149 -39.29153092 9.88053655 -37.9375 9.3203125 C-29.97431638 6.07221799 -21.99396232 3.2452941 -13.6875 1 C-12.89335693 0.78021484 -12.09921387 0.56042969 -11.28100586 0.33398438 C-10.15770874 0.04491211 -10.15770874 0.04491211 -9.01171875 -0.25 C-8.02884888 -0.50523437 -8.02884888 -0.50523437 -7.02612305 -0.765625 C-4.36832508 -1.07307 -2.54165122 -0.86232322 0 0 Z " fill="#BEC1C5" transform="translate(416,282)"/>
<path d="M0 0 C0.41507813 0.3403125 0.83015625 0.680625 1.2578125 1.03125 C10.55675039 8.3458957 20.93373708 13.57329193 31.625 18.5 C58.78527136 31.11328688 81.69384951 54.11166505 98 79 C99.95134751 76.56620013 101.89820317 74.12969831 103.82421875 71.67578125 C125.50614626 44.17564259 149.26728241 24.99075336 180.66162109 9.79443359 C185.40497279 7.44179995 189.4698096 4.67272353 193.49609375 1.25 C195 0 195 0 196 0 C197.09788963 10.42995147 192.76927969 20.7633896 186.5625 29.0625 C185.40138903 30.39840187 184.21570593 31.71358187 183 33 C182.30583984 33.80630859 182.30583984 33.80630859 181.59765625 34.62890625 C176.24582503 40.0659125 168.59336312 42.26370541 161.63085938 44.97119141 C128.29403686 57.6704779 128.29403686 57.6704779 103 82 C102.566875 82.62648438 102.13375 83.25296875 101.6875 83.8984375 C100.77203714 85.25255964 99.88210552 86.62391538 99 88 C95.24258405 83.34080422 95.24258405 83.34080422 93.5625 80.98046875 C81.07590065 63.8414105 62.10834678 56.28776896 43 49 C11.85103443 37.10747459 11.85103443 37.10747459 4.1015625 20.68359375 C1.32096551 13.90958618 -0.48937416 7.34061237 0 0 Z " fill="#072C5C" transform="translate(166,25)"/>
<path d="M0 0 C1.21171875 -0.00773437 2.4234375 -0.01546875 3.671875 -0.0234375 C22.70688296 0.01714887 39.71747682 3.71968429 56.625 12.25 C57.615 12.745 57.615 12.745 58.625 13.25 C58.625 13.91 58.625 14.57 58.625 15.25 C58.07674561 15.54132812 57.52849121 15.83265625 56.96362305 16.1328125 C36.97068876 26.80577962 14.54100045 39.62902995 4.625 61.25 C1.09103445 60.07201148 0.85365981 59.39651295 -1 56.3125 C-4.56741933 50.74449316 -8.8527177 46.05341886 -13.375 41.25 C-13.90480469 40.64414063 -14.43460938 40.03828125 -14.98046875 39.4140625 C-25.18630737 28.23748858 -39.93592278 21.62317064 -53.375 15.25 C-53.375 14.59 -53.375 13.93 -53.375 13.25 C-36.08819957 4.02346184 -19.68987689 -0.12488294 0 0 Z " fill="#062A5B" transform="translate(261.375,32.75)"/>
<path d="M0 0 C2.74176591 -0.15177592 5.16500402 -0.20540013 7.86694336 0.28271484 C10.48022461 2.77490234 10.48022461 2.77490234 12.17944336 6.15771484 C12.81072846 7.35054245 13.44224151 8.54324944 14.07397461 9.73583984 C14.6656543 10.90630859 15.25733398 12.07677734 15.86694336 13.28271484 C17.01867831 15.16692362 18.18366439 17.04315404 19.36694336 18.90771484 C21.86694336 22.91037442 21.86694336 22.91037442 21.86694336 26.28271484 C21.08307755 26.27605301 20.29921173 26.26939117 19.49159241 26.26252747 C11.97944901 26.2015552 4.46743121 26.15631434 -3.04489803 26.12727833 C-6.90390301 26.11184728 -10.76269793 26.09104217 -14.62158203 26.05639648 C-33.35201504 25.89288096 -51.57917519 26.31871256 -70.13305664 29.28271484 C-70.84607941 29.39465179 -71.55910217 29.50658875 -72.29373169 29.62191772 C-76.11356384 30.2344933 -79.90560039 30.94555612 -83.69555664 31.72021484 C-84.76854004 31.93339355 -85.84152344 32.14657227 -86.94702148 32.36621094 C-97.50355361 34.49658108 -108.04707145 36.64463603 -118.11938477 40.51953125 C-120.66344017 41.48373072 -123.23907696 42.34948832 -125.81542969 43.22290039 C-137.99705745 47.38331265 -150.21476481 52.12405989 -161.62133789 58.11474609 C-162.45020508 58.50017578 -163.27907227 58.88560547 -164.13305664 59.28271484 C-164.79305664 58.95271484 -165.45305664 58.62271484 -166.13305664 58.28271484 C-153.4833433 49.25266842 -140.92633338 40.47641447 -127.13305664 33.28271484 C-126.26293945 32.80833984 -125.39282227 32.33396484 -124.49633789 31.84521484 C-114.21714631 26.40828707 -102.93248216 22.75306925 -91.87915039 19.23974609 C-89.06435114 18.31119054 -89.06435114 18.31119054 -86.21118164 16.91552734 C-80.21655355 14.30665609 -73.76535723 12.94427285 -67.44555664 11.34521484 C-66.75199066 11.1687442 -66.05842468 10.99227356 -65.34384155 10.81045532 C-43.60736029 5.29240825 -22.34958954 2.01674002 0 0 Z " fill="#ACB1B6" transform="translate(436.133056640625,325.71728515625)"/>
<path d="M0 0 C22.69623167 0.19865411 46.03883614 2.98110987 67.875 9.1875 C68.87869629 9.46754883 69.88239258 9.74759766 70.91650391 10.03613281 C83.69091714 13.61899576 96.22549931 17.35574134 108.38671875 22.6875 C111.30469133 23.94226089 114.16733977 24.97253329 117.1875 25.9375 C133.16547918 31.68184901 147.26933032 41.94844352 160.90966797 51.8046875 C163.16336342 53.39039322 165.47661545 54.83083803 167.875 56.1875 C166.885 56.6825 166.885 56.6825 165.875 57.1875 C164.12597656 56.55419922 164.12597656 56.55419922 162.015625 55.4921875 C161.23614502 55.10820801 160.45666504 54.72422852 159.65356445 54.32861328 C158.81913818 53.9107959 157.98471191 53.49297852 157.125 53.0625 C149.17045063 49.1787508 141.27645514 45.9917091 132.875 43.1875 C131.47606921 42.67504445 130.07969112 42.15549218 128.6875 41.625 C128.12353516 41.41254639 127.55957031 41.20009277 126.97851562 40.98120117 C125.47000613 40.41200846 123.96374367 39.8368468 122.45898438 39.2578125 C116.22586792 36.91186933 110.07828274 35.10930162 103.5625 33.75 C102.59755615 33.54536133 101.6326123 33.34072266 100.63842773 33.12988281 C83.26107454 29.53258591 65.58729289 25.88308997 47.80859375 25.328125 C44.875 25.1875 44.875 25.1875 42.82250977 24.68701172 C38.47779076 23.95071626 34.18012743 24.04521082 29.78125 24.0546875 C28.79813843 24.05373077 27.81502686 24.05277405 26.80212402 24.05178833 C24.72094662 24.05110858 22.63976707 24.05294855 20.55859375 24.05712891 C17.41401232 24.06243418 14.26957673 24.05720077 11.125 24.05078125 C0.99581463 24.0477623 -9.04187931 24.11622943 -19.125 25.1875 C-17.95115053 21.3853746 -16.65449114 18.08056944 -14.55859375 14.69921875 C-14.07326172 13.91095703 -13.58792969 13.12269531 -13.08789062 12.31054688 C-12.58451172 11.50681641 -12.08113281 10.70308594 -11.5625 9.875 C-11.05525391 9.05193359 -10.54800781 8.22886719 -10.02539062 7.38085938 C-5.47784528 0.03575617 -5.47784528 0.03575617 0 0 Z " fill="#B0B4B9" transform="translate(91.125,327.8125)"/>
<path d="M0 0 C2.62438233 0.6962647 4.72333275 1.46298043 7.0625 2.8125 C5.59328515 6.95301458 3.52220972 10.57823066 1.28125 14.3359375 C-1.85691629 20.71285234 -2.27624368 26.72767669 -2.25 33.6875 C-2.26611328 34.53441406 -2.28222656 35.38132813 -2.29882812 36.25390625 C-2.30693984 46.84780512 1.45990395 55.56237526 8.0625 63.8125 C18.02746768 73.2871002 30.23056057 75.29989508 43.43359375 75.05078125 C46.71004117 74.83564315 49.83937781 74.42524193 53.0625 73.8125 C46.87566424 80.79763715 38.69639795 85.1920635 29.34765625 86.06640625 C15.33256737 86.62556681 4.98654572 80.40456283 -5.125 71.1875 C-15.21953886 60.62201916 -18.36361655 48.1517262 -18.37695312 33.98828125 C-17.99574069 21.69706816 -12.24960745 10.30308276 -4.41015625 1 C-2.9375 -0.1875 -2.9375 -0.1875 0 0 Z " fill="#092D5C" transform="translate(189.9375,70.1875)"/>
<path d="M0 0 C7.83515491 3.51498056 11.90093614 16.52792144 14.9765625 23.88671875 C16.42762148 28.2398957 16.20143445 32.45097743 16.2265625 37.01171875 C16.2471875 37.924375 16.2678125 38.83703125 16.2890625 39.77734375 C16.32475778 46.04186621 15.35147843 51.09776983 12.9765625 56.88671875 C12.61175781 57.79421875 12.24695313 58.70171875 11.87109375 59.63671875 C6.26120298 71.30205118 -2.24017521 79.30992037 -14.265625 84.20703125 C-24.04851317 87.49868539 -31.99223535 88.40449818 -41.5546875 84.16796875 C-52.1260016 78.68159054 -52.1260016 78.68159054 -54.0234375 74.88671875 C-53.16363281 75.04785156 -52.30382812 75.20898438 -51.41796875 75.375 C-37.47010046 77.47761306 -25.2527573 75.26114257 -13.63671875 67.23828125 C-6.41615269 61.42750313 -0.94652474 53.03683941 0.9765625 43.88671875 C1.92015474 28.41799345 -0.31901481 17.00138227 -9.0234375 3.88671875 C-2.66390627 -0.14913761 -2.66390627 -0.14913761 0 0 Z " fill="#092F5E" transform="translate(340.0234375,69.11328125)"/>
<path d="M0 0 C5.68736844 2.94900586 9.16812692 5.59398561 11.375 11.75 C12.39678053 18.35419124 11.037784 24.16061401 7.375 29.75 C1.77625873 34.32040104 -2.87168023 35.1107113 -9.90234375 35.02734375 C-15.19971513 34.48772629 -18.11485194 31.4653411 -21.4375 27.625 C-25.35616071 22.47476021 -25.23929326 18.09477185 -24.625 11.75 C-22.86976639 6.05077761 -18.66734202 2.581199 -13.625 -0.25 C-8.72508274 -1.88330575 -4.87772027 -1.68197251 0 0 Z " fill="#F0C314" transform="translate(311.625,89.25)"/>
<path d="M0 0 C4.9961892 2.83184813 7.89529949 7.06089848 9.6875 12.4375 C10.21420508 18.65262 9.58706638 23.39607164 5.6875 28.4375 C0.97690911 32.19852514 -3.8203778 34.93327916 -9.953125 34.84375 C-15.34183588 33.9158925 -20.02546129 30.74213131 -23.8359375 26.90234375 C-27.38757128 21.77640422 -27.23558713 15.39708008 -26.3125 9.4375 C-24.4041788 4.7089165 -20.85545768 1.37116462 -16.328125 -0.90234375 C-10.82138072 -2.70590922 -5.28321429 -2.30268396 0 0 Z " fill="#F0C414" transform="translate(232.3125,90.5625)"/>
<path d="M0 0 C3.96248753 3.82770904 7.34877953 8.02354699 10.80078125 12.30859375 C12.52335976 14.41668717 14.29117378 16.42902366 16.125 18.4375 C18 21 18 21 17.91015625 22.7421875 C16.56406904 26.08140814 14.44537502 28.81816487 12.3125 31.6875 C11.40103001 32.93263312 10.49087278 34.17872828 9.58203125 35.42578125 C9.13939941 36.03244629 8.69676758 36.63911133 8.24072266 37.26416016 C6.09104157 40.27168328 4.11603782 43.39005581 2.15625 46.5234375 C1.7746875 47.01070312 1.393125 47.49796875 1 48 C0.34 48 -0.32 48 -1 48 C-2.48408882 45.90232659 -3.84843786 43.81300454 -5.1875 41.625 C-8.52524861 36.24490123 -12.03311386 31.14573704 -15.98046875 26.18359375 C-17 24 -17 24 -16.4765625 21.58984375 C-14.68017123 18.43903049 -12.56245697 15.86670445 -10.1875 13.125 C-6.55920657 8.88698616 -3.14392126 4.61108452 0 0 Z " fill="#EFBC15" transform="translate(264,116)"/>
<path d="M0 0 C0.495 1.485 0.495 1.485 1 3 C0.21238281 3.51046875 -0.57523437 4.0209375 -1.38671875 4.546875 C-10.04768912 10.32768836 -17.54962243 16.74579254 -25 24 C-25.64936523 24.62358398 -26.29873047 25.24716797 -26.96777344 25.88964844 C-37.63255653 36.14911911 -46.84788998 46.6249501 -55 59 C-58.37119267 55.94485664 -60.95341792 52.73115079 -63.5625 49 C-68.4858793 42.11835352 -74.14876369 36.08748341 -80 30 C-80.4954834 29.47728516 -80.9909668 28.95457031 -81.50146484 28.41601562 C-90.63365761 18.80445057 -100.33622738 10.43922203 -112 4 C-111.34 3.34 -110.68 2.68 -110 2 C-89.68537005 12.1373315 -70.90955599 23.41566656 -58.3671875 42.9765625 C-57.06528599 44.90337673 -55.69915084 46.42149892 -54 48 C-53.61521484 46.92492187 -53.61521484 46.92492187 -53.22265625 45.828125 C-45.95577333 29.01910507 -29.32264685 17.59552759 -14.125 8.5625 C-13.41150391 8.13718994 -12.69800781 7.71187988 -11.96289062 7.27368164 C-8.06477098 5.01121666 -4.362587 3.25133765 0 2 C0 1.34 0 0.68 0 0 Z " fill="#F2F4F5" transform="translate(320,46)"/>
<path d="M0 0 C0 0.99 0 1.98 0 3 C0.66 3 1.32 3 2 3 C2 3.66 2 4.32 2 5 C1.41323486 5.16491943 0.82646973 5.32983887 0.22192383 5.49975586 C-14.37809953 9.65114586 -28.19237092 14.71050148 -42 21 C-43.2509959 21.56188012 -44.50226516 22.12315232 -45.75390625 22.68359375 C-48.1759505 23.7755243 -50.59191155 24.87772927 -53 26 C-53 25.01 -53 24.02 -53 23 C-52.01 23 -51.02 23 -50 23 C-52.475 22.01 -52.475 22.01 -55 21 C-40.70493476 11.46995651 -17.51148795 0 0 0 Z " fill="#ECEFF0" transform="translate(319,383)"/>
<path d="M0 0 C3.63525215 2.60789828 4.83397068 4.0702358 5.625 8.5 C4.83397068 12.9297642 3.63525215 14.39210172 0 17 C-3.75138748 17.70338515 -5.46952264 17.26523868 -8.875 15.5625 C-11.57234891 12.30981455 -11.72978547 10.26679951 -11.484375 6.12890625 C-11 4 -11 4 -8.875 1.4375 C-5.46952264 -0.26523868 -3.75138748 -0.70338515 0 0 Z " fill="#0A3361" transform="translate(227,98)"/>
<path d="M0 0 C2.875 2.0625 2.875 2.0625 5 5 C5.62491523 8.95779649 5.61006839 11.00863886 3.5 14.4375 C-0.02558884 16.64099302 -2.95014472 16.79669284 -7 16 C-9.5 14.5 -9.5 14.5 -11 12 C-11.60443392 9.19082139 -11.66040854 6.80242927 -11 4 C-7.75032314 0.17685075 -4.94151119 -0.92653335 0 0 Z " fill="#0A3264" transform="translate(308,98)"/>
<path d="M0 0 C0.495 1.485 0.495 1.485 1 3 C0.21238281 3.51046875 -0.57523437 4.0209375 -1.38671875 4.546875 C-11.46500747 11.27368546 -20.17822467 18.95666212 -28.56640625 27.69140625 C-29.15164063 28.2956543 -29.736875 28.89990234 -30.33984375 29.52246094 C-31.46813804 30.69488918 -32.58460362 31.87884437 -33.6875 33.07519531 C-35.22265625 34.67578125 -35.22265625 34.67578125 -38 37 C-40.37109375 36.85546875 -40.37109375 36.85546875 -42 36 C-41 33 -41 33 -39.0625 31.875 C-38.381875 31.58625 -37.70125 31.2975 -37 31 C-36.34 30.67 -35.68 30.34 -35 30 C-35 29.34 -35 28.68 -35 28 C-34.34 28 -33.68 28 -33 28 C-33.66 27.34 -34.32 26.68 -35 26 C-35.99 26 -36.98 26 -38 26 C-10.70491803 2 -10.70491803 2 0 2 C0 1.34 0 0.68 0 0 Z " fill="#EDEFF2" transform="translate(320,46)"/>
<path d="M0 0 C4.20240011 3.71750779 6.99782679 8.31660979 10 13 C13.45101522 8.75259665 16.73279209 4.38894929 20 0 C20.66 0.99 21.32 1.98 22 3 C22.99 2.67 23.98 2.34 25 2 C23.48342163 5.3927578 21.48592304 8.01516492 19.125 10.875 C16.1930286 14.47865939 13.47942706 18.07424049 11 22 C6.22827481 16.08306077 1.54536296 10.09272056 -3 4 C-2.01 4 -1.02 4 0 4 C0 2.68 0 1.36 0 0 Z " fill="#0F3165" transform="translate(254,91)"/>
<path d="M0 0 C4.15605242 1.48320086 7.7089943 3.58639858 11.375 6 C11.97135254 6.38792725 12.56770508 6.77585449 13.18212891 7.17553711 C20.15860292 11.72718369 27.08256373 16.35931096 34 21 C33.01 21.495 33.01 21.495 32 22 C30.25097656 21.36669922 30.25097656 21.36669922 28.140625 20.3046875 C27.36074219 19.92062744 26.58085937 19.53656738 25.77734375 19.14086914 C24.52630859 18.51426392 24.52630859 18.51426392 23.25 17.875 C16.16793323 14.40852175 9.18365323 11.43896138 1.6875 8.97265625 C-1 8 -1 8 -4 6 C-2.84826645 3.53199953 -1.95216435 1.95216435 0 0 Z " fill="#A5A4A4" transform="translate(225,363)"/>
<path d="M0 0 C0.495 1.485 0.495 1.485 1 3 C0.34 3.99 -0.32 4.98 -1 6 C0.32 5.34 1.64 4.68 3 4 C1.48957851 8.21138313 -1.06348099 9.53878729 -4.85546875 11.71484375 C-5.43533035 12.05246231 -6.01519196 12.39008087 -6.61262512 12.7379303 C-8.46532107 13.81449287 -10.32579952 14.8765983 -12.1875 15.9375 C-22.87366537 22.03278252 -22.87366537 22.03278252 -33 29 C-33.66 28.67 -34.32 28.34 -35 28 C-34.5373877 27.64808594 -34.07477539 27.29617187 -33.59814453 26.93359375 C-16.4425076 13.90631455 -16.4425076 13.90631455 0 0 Z " fill="#E8EAEC" transform="translate(433,151)"/>
<path d="M0 0 C0.99 1.32 1.98 2.64 3 4 C0.65678744 6.34321256 -1.41818799 7.20132278 -4.453125 8.53125 C-5.54753906 9.01207031 -6.64195312 9.49289063 -7.76953125 9.98828125 C-8.91808594 10.48714844 -10.06664062 10.98601562 -11.25 11.5 C-12.38308594 11.99886719 -13.51617187 12.49773437 -14.68359375 13.01171875 C-19.74314463 15.22416011 -24.73726695 17.31295058 -30 19 C-27.35467749 15.99709165 -24.23425586 14.22198114 -20.80078125 12.20703125 C-20.20573288 11.85613937 -19.61068451 11.5052475 -18.99760437 11.14372253 C-17.10505299 10.0290269 -15.20886335 8.9206956 -13.3125 7.8125 C-12.02514508 7.0557561 -10.73803285 6.29859918 -9.45117188 5.54101562 C-6.30357848 3.68921761 -3.15269199 1.84310737 0 0 Z " fill="#E7EBEE" transform="translate(425,188)"/>
<path d="M0 0 C0 0.99 0 1.98 0 3 C0.66 3 1.32 3 2 3 C2 3.66 2 4.32 2 5 C0.08802961 5.70045456 -1.82980435 6.384919 -3.75 7.0625 C-4.81734375 7.44535156 -5.8846875 7.82820313 -6.984375 8.22265625 C-9.9508857 8.98733971 -11.23143551 9.19098157 -14 8 C-14.66 7.34 -15.32 6.68 -16 6 C-16.99 6.495 -16.99 6.495 -18 7 C-18.66 6.34 -19.32 5.68 -20 5 C-17.04283593 4.16247839 -14.084087 3.33069969 -11.125 2.5 C-10.28324219 2.26152344 -9.44148438 2.02304687 -8.57421875 1.77734375 C-7.76855469 1.55175781 -6.96289062 1.32617188 -6.1328125 1.09375 C-5.01737061 0.77954102 -5.01737061 0.77954102 -3.87939453 0.45898438 C-2 0 -2 0 0 0 Z " fill="#E7EAED" transform="translate(319,383)"/>
<path d="M0 0 C0.33 0.99 0.66 1.98 1 3 C0.154375 3.56847656 -0.69125 4.13695312 -1.5625 4.72265625 C-8.0620961 9.13271991 -14.25990575 13.60673924 -20 19 C-20.66 18.34 -21.32 17.68 -22 17 C-21.41684591 14.1102632 -20.56243126 12.41714658 -18.1796875 10.64990234 C-15.8200111 9.25475395 -13.42962541 7.95684764 -11 6.6875 C-10.16726563 6.23310547 -9.33453125 5.77871094 -8.4765625 5.31054688 C-2.32342575 2 -2.32342575 2 0 2 C0 1.34 0 0.68 0 0 Z " fill="#E5E9EE" transform="translate(320,46)"/>
<path d="M0 0 C2.80486839 1.18321001 5.5911048 2.39417817 8.375 3.625 C9.1690625 3.95628906 9.963125 4.28757812 10.78125 4.62890625 C16.65553507 7.26735633 16.65553507 7.26735633 18.5390625 11.2734375 C18.69117188 12.17320313 18.84328125 13.07296875 19 14 C15.09957824 14 14.18418909 12.74679444 11.25 10.25 C7.31600721 6.99666872 3.51826205 4.35735412 -1 2 C-0.67 1.34 -0.34 0.68 0 0 Z " fill="#E3E9EE" transform="translate(209,48)"/>
<path d="M0 0 C3.3 0.33 6.6 0.66 10 1 C10 1.33 10 1.66 10 2 C8.824375 1.79375 7.64875 1.5875 6.4375 1.375 C4.19522874 1.26508467 4.19522874 1.26508467 2 2 C-0.92379714 4.9715326 -2.9021246 8.41676757 -5 12 C-5.95709925 13.45914356 -6.91529529 14.91756878 -7.875 16.375 C-9.49460376 18.89557539 -10.39152986 21.06121869 -11 24 C-11.99 23.67 -12.98 23.34 -14 23 C-12.60933271 20.47619639 -11.21266777 17.95602681 -9.8125 15.4375 C-9.42513672 14.73302734 -9.03777344 14.02855469 -8.63867188 13.30273438 C-6.03238504 8.62864973 -3.18332188 4.30285604 0 0 Z " fill="#606B76" transform="translate(86,328)"/>
<path d="M0 0 C0.66 0.99 1.32 1.98 2 3 C2.99 2.67 3.98 2.34 5 2 C3.33248852 5.94139078 0.77289351 8.7892812 -2 12 C-2.66 11.67 -3.32 11.34 -4 11 C-4 10.34 -4 9.68 -4 9 C-4.66 8.67 -5.32 8.34 -6 8 C-4.02 5.36 -2.04 2.72 0 0 Z " fill="#16376D" transform="translate(274,91)"/>
<path d="M0 0 C1 3 1 3 0 6 C-3.5625 7.6875 -3.5625 7.6875 -7 9 C-7 8.01 -7 7.02 -7 6 C-6.01 6 -5.02 6 -4 6 C-6.475 5.01 -6.475 5.01 -9 4 C-3 0 -3 0 0 0 Z " fill="#ECEEF0" transform="translate(273,400)"/>
<path d="M0 0 C0 0.99 0 1.98 0 3 C-0.66 3.61875 -1.32 4.2375 -2 4.875 C-4.23410971 6.84035106 -4.23410971 6.84035106 -4.375 9.625 C-4.20984251 12.18227196 -4.20984251 12.18227196 -2 14 C-3.875 13.8125 -3.875 13.8125 -6 13 C-7.25 10.4375 -7.25 10.4375 -8 8 C-7.04578192 6.85073734 -6.08647955 5.70569459 -5.125 4.5625 C-4.59132812 3.92441406 -4.05765625 3.28632813 -3.5078125 2.62890625 C-2 1 -2 1 0 0 Z " fill="#E29B17" transform="translate(255,130)"/>
<path d="M0 0 C3.71279784 1.44386582 4.9486443 3.12236392 6.75 6.625 C7.17796875 7.44226563 7.6059375 8.25953125 8.046875 9.1015625 C8.51867187 10.04128906 8.51867187 10.04128906 9 11 C6.00779732 9.63629701 3.70973471 8.05091917 1.25 5.875 C0.63640625 5.33617187 0.0228125 4.79734375 -0.609375 4.2421875 C-1.06828125 3.83226562 -1.5271875 3.42234375 -2 3 C-1.34 2.67 -0.68 2.34 0 2 C0 1.34 0 0.68 0 0 Z " fill="#858688" transform="translate(254,371)"/>
<path d="M0 0 C0.33 0.99 0.66 1.98 1 3 C-3.29 5.97 -7.58 8.94 -12 12 C-12.66 11.34 -13.32 10.68 -14 10 C-11.72402354 7.50447597 -9.39278822 5.93377014 -6.4375 4.3125 C-5.65246094 3.87550781 -4.86742187 3.43851563 -4.05859375 2.98828125 C-2 2 -2 2 0 2 C0 1.34 0 0.68 0 0 Z " fill="#E4EAF0" transform="translate(320,46)"/>
<path d="M0 0 C3.95906817 1.43308135 7.28718181 3.33141949 10.8125 5.625 C11.78832031 6.25664062 12.76414063 6.88828125 13.76953125 7.5390625 C14.87361328 8.26222656 14.87361328 8.26222656 16 9 C15.01 9.495 15.01 9.495 14 10 C11.38838269 8.75874818 8.89498214 7.4689476 6.375 6.0625 C5.66859375 5.67642578 4.9621875 5.29035156 4.234375 4.89257812 C2.48566349 3.93551304 0.74231568 2.96865969 -1 2 C-0.67 1.34 -0.34 0.68 0 0 Z " fill="#9F9E9F" transform="translate(243,375)"/>
<path d="M0 0 C0.66 0.33 1.32 0.66 2 1 C1 4 1 4 -1.65234375 5.640625 C-2.73644531 6.17171875 -3.82054687 6.7028125 -4.9375 7.25 C-6.01902344 7.79140625 -7.10054688 8.3328125 -8.21484375 8.890625 C-9.13394531 9.25671875 -10.05304688 9.6228125 -11 10 C-11.66 9.67 -12.32 9.34 -13 9 C-8.71 6.03 -4.42 3.06 0 0 Z " fill="#9F9FA1" transform="translate(283,375)"/>
<path d="M0 0 C3.62276315 1.3255581 6.63505348 2.94346955 9.8125 5.125 C10.60269531 5.66382813 11.39289063 6.20265625 12.20703125 6.7578125 C12.79871094 7.16773438 13.39039063 7.57765625 14 8 C13.01 8.495 13.01 8.495 12 9 C9.75689987 8.10333658 7.55245679 7.10853317 5.375 6.0625 C4.18648438 5.49660156 2.99796875 4.93070313 1.7734375 4.34765625 C0.85820313 3.90292969 -0.05703125 3.45820313 -1 3 C-0.67 2.01 -0.34 1.02 0 0 Z " fill="#D5DDE4" transform="translate(121,200)"/>
<path d="M0 0 C0.66 0.99 1.32 1.98 2 3 C-0.45404224 4.19716659 -2.91251679 5.3829346 -5.375 6.5625 C-6.42300781 7.07586914 -6.42300781 7.07586914 -7.4921875 7.59960938 C-9.30052216 8.46030712 -11.14851956 9.23652436 -13 10 C-13.66 9.67 -14.32 9.34 -15 9 C-10.05 6.03 -5.1 3.06 0 0 Z " fill="#D4DDE3" transform="translate(410,197)"/>
<path d="M0 0 C0.66 0.66 1.32 1.32 2 2 C-0.97 2 -3.94 2 -7 2 C-8.80568106 5.61136212 -9.24851563 6.544531 -9.125 10.25 C-9.08375 11.4875 -9.0425 12.725 -9 14 C-11 12 -11 12 -11.4375 8.125 C-11.34642458 4.78556783 -11.15043161 4.17697837 -8.875 1.5 C-5.57896166 -0.21967218 -3.6663563 -0.48884751 0 0 Z " fill="#153C6A" transform="translate(308,98)"/>
<path d="M0 0 C0.99 0.33 1.98 0.66 3 1 C-1.42442592 4.71080883 -6.17403931 7.84577733 -11 11 C-11.66 10.67 -12.32 10.34 -13 10 C-10.90516399 8.29962669 -8.80057275 6.61493394 -6.6875 4.9375 C-6.09259766 4.45216797 -5.49769531 3.96683594 -4.88476562 3.46679688 C-3.3162821 2.23128751 -1.66163416 1.10706635 0 0 Z " fill="#C8D0D7" transform="translate(411,169)"/>
<path d="M0 0 C0.33 0.66 0.66 1.32 1 2 C0.34 2 -0.32 2 -1 2 C-1 2.66 -1 3.32 -1 4 C-1.66 4 -2.32 4 -3 4 C-3.33 4.99 -3.66 5.98 -4 7 C-5.65 6.67 -7.3 6.34 -9 6 C-6.11912454 3.59927045 -3.43595166 1.52708963 0 0 Z " fill="#EBEBE8" transform="translate(296,83)"/>
<path d="M0 0 C0.66 1.32 1.32 2.64 2 4 C-0.31 5.65 -2.62 7.3 -5 9 C-3.7508258 5.54074837 -2.32472205 2.85306797 0 0 Z " fill="#78787C" transform="translate(272,373)"/>
<path d="M0 0 C1.5 1.375 1.5 1.375 3 3 C3 3.66 3 4.32 3 5 C-0.63 4.67 -4.26 4.34 -8 4 C-8 3.67 -8 3.34 -8 3 C-5.69 3 -3.38 3 -1 3 C-0.67 2.01 -0.34 1.02 0 0 Z " fill="#3C5C7F" transform="translate(466,370)"/>
<path d="M0 0 C2 1 2 1 2 1 Z M-1 1 C0.44229319 3.88458638 -0.35549878 5.90639415 -1 9 C-1.33 9.66 -1.66 10.32 -2 11 C-4.1387261 7.79191085 -4.47730962 6.72301503 -4 3 C-3.01 2.34 -2.02 1.68 -1 1 Z " fill="#032C5B" transform="translate(220,100)"/>
<path d="M0 0 C-4.455 2.97 -4.455 2.97 -9 6 C-8 2 -8 2 -6.1875 0.1875 C-4 -1 -4 -1 0 0 Z " fill="#1B3665" transform="translate(289,88)"/>
<path d="M0 0 C-5.75 5 -5.75 5 -8 5 C-8 4.01 -8 3.02 -8 2 C-7.34 2 -6.68 2 -6 2 C-6 1.34 -6 0.68 -6 0 C-2.25 -1.125 -2.25 -1.125 0 0 Z " fill="#2D5177" transform="translate(243,145)"/>
<path d="M0 0 C0.33 0.66 0.66 1.32 1 2 C0.06421005 4.35981813 -0.93347808 6.69631264 -2 9 C-2.66 8.34 -3.32 7.68 -4 7 C-3.8125 4.5 -3.8125 4.5 -3 2 C-2.01 1.34 -1.02 0.68 0 0 Z " fill="#193962" transform="translate(354,120)"/>
<path d="M0 0 C0.66 0.66 1.32 1.32 2 2 C-2.18461538 6.92307692 -2.18461538 6.92307692 -6.3125 7.3125 C-7.199375 7.209375 -8.08625 7.10625 -9 7 C-9 6.67 -9 6.34 -9 6 C-6.36 5.34 -3.72 4.68 -1 4 C-0.67 2.68 -0.34 1.36 0 0 Z " fill="#254A6E" transform="translate(230,108)"/>
<path d="M0 0 C0.66 0.33 1.32 0.66 2 1 C-0.97 4.96 -0.97 4.96 -4 9 C-4.99 8.67 -5.98 8.34 -7 8 C-4.69 5.36 -2.38 2.72 0 0 Z " fill="#193664" transform="translate(282,82)"/>
<path d="M0 0 C0.99 0.33 1.98 0.66 3 1 C2.67 1.99 2.34 2.98 2 4 C0.02 4.33 -1.96 4.66 -4 5 C-2.68 3.35 -1.36 1.7 0 0 Z " fill="#1C406D" transform="translate(350,144)"/>
<path d="M0 0 C1.98 1.65 3.96 3.3 6 5 C5.34 5.66 4.68 6.32 4 7 C2.35 5.68 0.7 4.36 -1 3 C-0.67 2.01 -0.34 1.02 0 0 Z " fill="#DEE1E5" transform="translate(183,139)"/>
<path d="M0 0 C0 0.66 0 1.32 0 2 C-3.22791555 4.1519437 -4.28400809 4.20086443 -8 4 C-7.34 3.67 -6.68 3.34 -6 3 C-6 2.34 -6 1.68 -6 1 C-4 0 -4 0 0 0 Z " fill="#03316A" transform="translate(229,110)"/>
<path d="M0 0 C0.33 0 0.66 0 1 0 C2 7.625 2 7.625 2 11 C1.01 10.67 0.02 10.34 -1 10 C-0.67 6.7 -0.34 3.4 0 0 Z " fill="#BAA523" transform="translate(215,103)"/>
<path d="M0 0 C0.33 0.99 0.66 1.98 1 3 C-1.31 4.32 -3.62 5.64 -6 7 C-6.66 6.34 -7.32 5.68 -8 5 C-2.25 2 -2.25 2 0 2 C0 1.34 0 0.68 0 0 Z " fill="#D4DBE2" transform="translate(320,46)"/>
</svg>
